<svg width="20" height="19" viewBox="0 0 20 19" fill="none" xmlns="http://www.w3.org/2000/svg">
<path d="M0.625 4.5H16.875C17.2203 4.5 17.5 4.22031 17.5 3.875V1.375C17.5 1.02969 17.2203 0.75 16.875 0.75H0.625C0.279687 0.75 0 1.02969 0 1.375V3.875C0 4.22031 0.279687 4.5 0.625 4.5ZM19.375 7.625H3.125C2.77969 7.625 2.5 7.90469 2.5 8.25V10.75C2.5 11.0953 2.77969 11.375 3.125 11.375H19.375C19.7203 11.375 20 11.0953 20 10.75V8.25C20 7.90469 19.7203 7.625 19.375 7.625ZM16.875 14.5H0.625C0.279687 14.5 0 14.7797 0 15.125V17.625C0 17.9703 0.279687 18.25 0.625 18.25H16.875C17.2203 18.25 17.5 17.9703 17.5 17.625V15.125C17.5 14.7797 17.2203 14.5 16.875 14.5Z" fill="white"/>
</svg>
